<mxfile host="app.diagrams.net" modified="2023-06-17T02:01:54.934Z" agent="Mozilla/5.0 (Windows NT 10.0; Win64; x64) AppleWebKit/537.36 (KHTML, like Gecko) Chrome/114.0.0.0 Safari/537.36" version="21.3.8" etag="lyVdrWl1nM4S_WdS1Oi8" type="github">
  <diagram name="Page-1" id="XEdmlLp4RB1UoFS9EZOh">
    <mxGraphModel>
      <root>
        <mxCell id="0" />
        <mxCell id="1" parent="0" />
      </root>
    </mxGraphModel>
  </diagram>
</mxfile>
